<?xml version="1.0" encoding="utf-8"?>
<!-- Generator: Adobe Illustrator 19.0.0, SVG Export Plug-In . SVG Version: 6.00 Build 0)  -->
<svg version="1.1" id="_x37_5ec1790-e4b7-40a0-8812-a9d39b2e2dcc"
	 xmlns="http://www.w3.org/2000/svg" xmlns:xlink="http://www.w3.org/1999/xlink" x="0px" y="0px" viewBox="-23 365.9 1152.1 771.1"
	 style="enable-background:new -23 365.9 1152.1 771.1;" xml:space="preserve">
<style type="text/css">
	.st0{opacity:0.1;fill:#D50F67;enable-background:new    ;}
	.st1{opacity:0.5;}
	.st2{fill:#D50F67;}
	.st3{opacity:0.2;fill:#FFFFFF;enable-background:new    ;}
	.st4{fill:#FBBEBE;}
	.st5{opacity:3.000000e-002;enable-background:new    ;}
	.st6{fill:#464353;}
	.st7{opacity:6.000000e-002;enable-background:new    ;}
	.st8{opacity:6.000000e-002;}
	.st9{fill:#3ACC6C;}
</style>
<title>personal trainer</title>
<path class="st0" d="M646.4,493c-73.9-2.6-144.2-26.4-211.3-52.5c-67.1-26.1-133.7-55-205.8-68.8c-46.4-8.9-99.5-10.1-136.8,14.7
	C56.5,410.4,44.9,451.7,38.6,490c-4.7,28.8-7.5,59.2,5.4,86.2c8.9,18.7,24.8,34.5,35.8,52.4C118.1,691,91.1,768,49.6,829
	c-19.4,28.6-41.9,55.9-56.9,86.3s-21.9,65.3-8.8,96.4c13,30.8,44,53.9,77.5,70.2c68.1,33,148.4,42.5,226.7,47.8
	c173.3,11.8,347.5,6.7,521.2,1.6c64.3-1.9,128.9-3.8,192.1-13.8c35.1-5.5,71.4-14.3,96.9-35.4c32.4-26.8,40.4-72.3,18.7-106
	c-36.4-56.5-137-70.5-162.4-131.1c-14-33.4,0.4-70.5,20.7-101.5c43.6-66.4,116.8-124.6,120.6-200.5c2.6-52.1-32.5-104.3-86.9-129
	c-57-25.8-136-22.6-178,20.2C787.7,478.4,711.6,495.3,646.4,493z"/>
<g class="st1">
	<polygon class="st2" points="590.8,768.5 557.3,769.2 551.8,776.7 551.8,802.6 558.7,807.4 590.8,807.4 597.6,799.9 597.6,775.3 	
		"/>
	<path class="st3" d="M590.1,772.6c0,0-30.7,4.8-33.5,0l0.7-3.4l32.8-0.7V772.6z"/>
	<path class="st2" d="M593.5,843.6l5.5,5.5v26l-5.5,5.4c0,0-19.8,6.8-32.8,1.4l-6.2-6.1v-26l5.5-6.2L593.5,843.6z"/>
	<path class="st3" d="M592.1,849.8c0,0-23.9,5.5-32.1,0v-6.2h33.5L592.1,849.8z"/>
	<path class="st2" d="M580.5,807.2v36.9c-0.2,3-2.8,5.4-5.8,5.2l0,0c-3,0.1-5.6-2.2-5.8-5.2v-36.9c0-3.1,3-5.6,6.5-5.2l0,0
		C578.2,802.2,580.4,804.4,580.5,807.2z"/>
	<polygon class="st2" points="644.3,769.5 610.9,770.2 605.4,777.7 605.4,803.7 612.3,808.5 644.3,808.5 651.2,801 651.2,776.4 	"/>
	<path class="st3" d="M643.7,773.6c0,0-30.7,4.8-33.5,0l0.7-3.4l32.8-0.7V773.6z"/>
	<path class="st2" d="M647.1,844.7l5.5,5.5v26l-5.5,5.4c0,0-19.8,6.8-32.8,1.4l-6.2-6.1v-26l5.5-6.2L647.1,844.7z"/>
	<path class="st3" d="M645.7,850.8c0,0-23.9,5.5-32.1,0v-6.1h33.4L645.7,850.8z"/>
	<path class="st2" d="M634.1,808.3v36.9c-0.2,3-2.8,5.4-5.8,5.2l0,0c-3,0.1-5.6-2.2-5.8-5.2v-36.9c0-3.1,3-5.6,6.5-5.2l0,0
		C631.7,803.2,633.9,805.5,634.1,808.3z"/>
	<polygon class="st2" points="712.6,789.3 685,789.9 680.5,796 680.5,817.4 686.1,821.3 712.6,821.3 718.2,815.2 718.2,794.9 	"/>
	<path class="st3" d="M712,792.7c0,0-25.3,3.9-27.5,0l0.6-2.8l27-0.6L712,792.7z"/>
	<path class="st2" d="M714.8,851.1l4.5,4.5V877l-4.5,4.5c0,0-16.3,5.6-27,1.1l-5.1-5.1v-21.4l4.5-5.1H714.8z"/>
	<path class="st3" d="M713.7,856.2c0,0-19.7,4.5-26.4,0v-5.1h27.5L713.7,856.2z"/>
	<path class="st2" d="M704.1,821.2v30.4c-0.1,2.5-2.3,4.4-4.8,4.3l0,0c-2.5,0.1-4.6-1.8-4.8-4.3v-30.4c0.2-2.5,2.3-4.5,4.9-4.3
		c0.1,0,0.3,0,0.4,0l0,0C702.2,817,704,818.9,704.1,821.2z"/>
	<polygon class="st2" points="756.7,790.2 729.1,790.7 724.6,796.9 724.6,818.3 730.3,822.2 756.7,822.2 762.3,816 762.3,795.8 	"/>
	<path class="st3" d="M756.1,793.5c0,0-25.3,3.9-27.5,0l0.6-2.8l27-0.6L756.1,793.5z"/>
	<path class="st2" d="M758.9,852l4.5,4.5v21.4l-4.5,4.5c0,0-16.3,5.6-27,1.1l-5-5v-21.4l4.5-5.1H758.9z"/>
	<path class="st3" d="M757.8,857.1c0,0-19.7,4.5-26.4,0V852h27.5L757.8,857.1z"/>
	<path class="st2" d="M748.3,822v30.4c-0.1,2.5-2.3,4.4-4.8,4.3l0,0c-2.5,0.1-4.6-1.8-4.8-4.3V822c0-2.6,2.5-4.6,5.3-4.3l0,0
		C746.3,817.9,748.1,819.8,748.3,822z"/>
</g>
<path class="st4" d="M776,986.9c2.3,3.2,3,7.2,2,11c3.6,2.6,7.9,3.8,12.3,3.6c4.4-0.2,8.6-1.2,12.7-2.9c3.5-1.3,6.8-3,9.8-5.2
	c5.2-3.9,9-9.4,12-15.1c1.7-3.2,3.1-7.3,1-10.1c-0.8-1-1.9-1.8-3-2.3c-7.7-4.4-15.7-8.2-24-11.4c-2.3-1-4.7-1.6-7.2-1.6
	c-3.1,0.2-5.9,1.8-8.3,3.7c-5.5,4.3-9.9,9.7-12.9,16c-0.9,2-3.8,6.8-2.4,8.8c0.6,1,3,1.3,4,1.9C773.5,984.2,774.9,985.4,776,986.9z"
	/>
<path class="st5" d="M776,986.9c2.3,3.2,3,7.2,2,11c3.6,2.6,7.9,3.8,12.3,3.6c4.4-0.2,8.6-1.2,12.7-2.9c3.5-1.3,6.8-3,9.8-5.2
	c5.2-3.9,9-9.4,12-15.1c1.7-3.2,3.1-7.3,1-10.1c-0.8-1-1.9-1.8-3-2.3c-7.7-4.4-15.7-8.2-24-11.4c-2.3-1-4.7-1.6-7.2-1.6
	c-3.1,0.2-5.9,1.8-8.3,3.7c-5.5,4.3-9.9,9.7-12.9,16c-0.9,2-3.8,6.8-2.4,8.8c0.6,1,3,1.3,4,1.9C773.5,984.2,774.9,985.4,776,986.9z"
	/>
<path class="st6" d="M817.4,963.7c16.9,3.1,32.5,11.3,49.1,15.7c6.7,1.8,13.7,3,20.1,5.6s12.5,7.1,15.3,13.5
	c1.2,3.1,1.9,6.3,2.3,9.5c0.7,4.6,1.3,9.8-1.4,13.5c-2.9,4-8.3,4.9-13.2,5.5c-17.6,2.1-35.2,4.2-52.8,5.7c-3.6,0.2-7.1,0.6-10.7,1.3
	c-2.9,0.6-5.7,1.5-8.6,2.1c-3.7,0.9-7.5,1.4-11.3,2c-9.7,1.4-19.5,2.8-29.2,1.7c-4.4-0.5-9.4-1.9-11.3-5.9c-0.8-2.1-1.2-4.3-1-6.5
	c0-5.9-0.1-11.9,0-17.8c0.1-6.1,0.4-12.4,3.2-17.8c0.7-1.7,2-3,3.6-3.8c1-0.3,2.1-0.4,3.1-0.3c5.2,0.2,10.6,0.4,15.2,2.7
	c3.7,1.8,6.7,4.9,10.5,6.5c7.1,3.2,15.7,0.9,22.9,3.9c1.7-5.2,1.3-10.4,0-15.7s-3-10.5-3.5-15.9c0-1.2-0.3-2.4-0.7-3.5
	C818.4,964.6,818.6,963.5,817.4,963.7z"/>
<path class="st7" d="M817.4,963.7c16.9,3.1,32.5,11.3,49.1,15.7c6.7,1.8,13.7,3,20.1,5.6s12.5,7.1,15.3,13.5
	c1.2,3.1,1.9,6.3,2.3,9.5c0.7,4.6,1.3,9.8-1.4,13.5c-2.9,4-8.3,4.9-13.2,5.5c-17.6,2.1-35.2,4.2-52.8,5.7c-3.6,0.2-7.1,0.6-10.7,1.3
	c-2.9,0.6-5.7,1.5-8.6,2.1c-3.7,0.9-7.5,1.4-11.3,2c-9.7,1.4-19.5,2.8-29.2,1.7c-4.4-0.5-9.4-1.9-11.3-5.9c-0.8-2.1-1.2-4.3-1-6.5
	c0-5.9-0.1-11.9,0-17.8c0.1-6.1,0.4-12.4,3.2-17.8c0.7-1.7,2-3,3.6-3.8c1-0.3,2.1-0.4,3.1-0.3c5.2,0.2,10.6,0.4,15.2,2.7
	c3.7,1.8,6.7,4.9,10.5,6.5c7.1,3.2,15.7,0.9,22.9,3.9c1.7-5.2,1.3-10.4,0-15.7s-3-10.5-3.5-15.9c0-1.2-0.3-2.4-0.7-3.5
	C818.4,964.6,818.6,963.5,817.4,963.7z"/>
<path class="st4" d="M252.2,793.2c-3.4-1.1-6.7,1.9-8.6,5c-7.9,12.5-7.3,29.1-0.9,42.5c1.5,3.4,3.6,6.5,6.2,9.2
	c3.4,3.4,7.9,5.6,12,8c11.5,6.8,21.3,16,28.8,27c4.9,7.2,8.7,15.1,14.3,21.8c13.7,16.5,36.1,24,49.4,40.8c3.2,4,5.9,8.6,10.1,11.5
	c7.8,5.4,18.5,3.4,23.8-4.4c1.8-2.6,2.8-5.7,3-8.9c5.1-7.6,9.4-15.9,13.4-24.2c5.9-12.6,10.9-25.6,15-38.9c1.5-4.7,2.9-9.4,4.8-14
	c4.7-11.3,12.2-21.5,14.8-33.4c1.1-4.8,1.3-9.8,2.9-14.4c1.4-4.2,3.7-7.9,6.9-11c10.4-10.1,16-24.8,24.3-36.7
	c3.4-4.8,6.9-9.6,9.1-15s3.1-11.7,1-17.2s-7.5-9.9-13.3-9.6c-2.6,0.3-5.2,1.1-7.5,2.3c-8.1,3.8-15.5,8.9-21.9,15.1
	c-2.8,2.7-5.5,5.6-8,8.6c-12.2,14.6-21.8,32.3-22.6,51.3c-0.3,6.5,0.2,13.7-3.9,18.8c-11.4,14-15.1,33.1-24.8,48.3
	c-4.5,7-9.7,14.3-17.4,17.4c-1.1,0.5-2.4,0.8-3.7,0.7c-3.1-0.3-4.9-3.6-6.1-6.4c-5.1-11-11-21.6-17.6-31.8c-2.6-4-5.5-8.1-9.7-10.5
	c-2.9-1.6-6.2-2.3-8.9-4.2c-3.8-2.6-5.7-7-7.7-11.1c-6.3-13.3-14.3-25.8-23.8-37.1c-4.3-5.2-10.1-10.5-16.8-9.7
	C262.1,784,258.2,790.7,252.2,793.2z"/>
<path class="st5" d="M252.2,793.2c-3.4-1.1-6.7,1.9-8.6,5c-7.9,12.5-7.3,29.1-0.9,42.5c1.5,3.4,3.6,6.5,6.2,9.2
	c3.4,3.4,7.9,5.6,12,8c11.5,6.8,21.3,16,28.8,27c4.9,7.2,8.7,15.1,14.3,21.8c13.7,16.5,36.1,24,49.4,40.8c3.2,4,5.9,8.6,10.1,11.5
	c7.8,5.4,18.5,3.4,23.8-4.4c1.8-2.6,2.8-5.7,3-8.9c5.1-7.6,9.4-15.9,13.4-24.2c5.9-12.6,10.9-25.6,15-38.9c1.5-4.7,2.9-9.4,4.8-14
	c4.7-11.3,12.2-21.5,14.8-33.4c1.1-4.8,1.3-9.8,2.9-14.4c1.4-4.2,3.7-7.9,6.9-11c10.4-10.1,16-24.8,24.3-36.7
	c3.4-4.8,6.9-9.6,9.1-15s3.1-11.7,1-17.2s-7.5-9.9-13.3-9.6c-2.6,0.3-5.2,1.1-7.5,2.3c-8.1,3.8-15.5,8.9-21.9,15.1
	c-2.8,2.7-5.5,5.6-8,8.6c-12.2,14.6-21.8,32.3-22.6,51.3c-0.3,6.5,0.2,13.7-3.9,18.8c-11.4,14-15.1,33.1-24.8,48.3
	c-4.5,7-9.7,14.3-17.4,17.4c-1.1,0.5-2.4,0.8-3.7,0.7c-3.1-0.3-4.9-3.6-6.1-6.4c-5.1-11-11-21.6-17.6-31.8c-2.6-4-5.5-8.1-9.7-10.5
	c-2.9-1.6-6.2-2.3-8.9-4.2c-3.8-2.6-5.7-7-7.7-11.1c-6.3-13.3-14.3-25.8-23.8-37.1c-4.3-5.2-10.1-10.5-16.8-9.7
	C262.1,784,258.2,790.7,252.2,793.2z"/>
<ellipse class="st4" cx="251.5" cy="721.6" rx="26.4" ry="23.8"/>
<circle class="st4" cx="276.2" cy="716.7" r="9.5"/>
<ellipse class="st4" cx="255" cy="711.9" rx="36.3" ry="9.7"/>
<path class="st4" d="M222.6,709.8c0.9,2.8,1.6,5.7,2.1,8.5c-3-3.1-5.7-6.6-7.9-10.3c-0.6-0.6-1.1-1.4-1.4-2.2
	c-3.2-7.5-5.4-15.2-5.4-23.4c0-28.4,23-51.4,51.4-51.4c28.4,0,51.4,23,51.4,51.4c0,23.2-15.5,43.5-37.9,49.6c1.6-5.1,3.7-10,4-15.3
	c0.2-1.8-0.1-3.5-0.7-5.2c-0.9-1.7-2.2-3.2-3.8-4.3c-5.7-4.4-13.1-6.3-20.3-6.2c-7.2,0.3-14.3,2-20.9,5c-2.1,0.9-4.6,2.1-7,2.9
	C225,709.4,223.8,709.7,222.6,709.8z"/>
<path class="st4" d="M352.8,822.2c-3.3,5.3-10.3,6.9-16.5,6.4c-11.5-0.8-22-7-30.9-14.4s-16.7-16-25.8-23.1
	c-16.9-13.3-36-18.6-57.5-18.9c4.2-3.5,2.7-11.8,3-17.2c0.7-11,1.4-22.3,0-33.1c-0.1-1.2-0.3-2.3-0.5-3.5c0.3,0.4,0.7,0.7,1.1,1.1
	c13,12.5,31.7,17.3,49.1,12.5c-0.6,1.7-1,3.5-1.3,5.3c-1.2,7.7,0.8,15.6,2.9,23.1c1.2,4.5,2.7,9.4,6.4,12.2c2.4,1.8,5.5,2.6,8.3,3.5
	c5.7,1.9,11,5,15.5,9c3.2,2.8,6,6,9.4,8.4c3.2,2,6.6,3.8,10.1,5.2c8.7,4,16.8,9,24.4,14.8c1.4,0.9,2.5,2.2,3.2,3.8
	C354.1,819.1,353.8,820.8,352.8,822.2z"/>
<path class="st4" d="M411.9,919.1c-0.7,4.6-4.9,8.1-7.8,11.7c-8,9.7-16.1,19.4-25.1,28.3c-9.6,9.5-20.1,17.9-30.7,26.3l-13.7,10.9
	c-1.7,1.5-3.7,2.7-5.8,3.5c-2.5,0.6-5.2,0.3-7.5-0.9c-0.9-0.4-1.8-1-2.6-1.6c-2.8-2.2-4.9-5.2-6.9-8.2c-9.2-13.5-18.5-27-27.8-40.5
	c-3.3-4.8-6.5-9.8-9.8-14.7c-0.4-0.6-0.8-1.3-1.3-1.9c-2.9-4.5-5.9-9-8.9-13.3l-16.5-7.7l-2.2-1l-2.6-1.2c-3.4-1.6-6.8-3.2-9.6-5.7
	c-2.7-2.5-4.9-5.5-6.6-8.8c-3.3-6.1-6.2-12.4-8.6-18.9c-7-17.7-13.2-36.1-13.4-55.1c-0.2-16.7,4.7-34.1,15.8-46.4
	c1.5-1.7,3.2-3.3,4.9-4.7c2.1-1.8,4.4-2.8,7.1-2.5c2.8,0.4,5.4,0.8,8,1.2c7.3,1.3,14.5,2.8,21.7,4.6c6.5,1.7,13.1,3.5,19.7,2.2
	c1.1-0.2,2.1-0.5,3.1-0.8c0.9-0.2,1.7-0.4,2.6-0.6c0.5-0.1,1-0.1,1.5-0.2c3.5-0.2,6.8,1.2,10,2.6c6.1,2.6,12.4,5.4,17,10.2
	c2.7,2.9,4.8,6.5,7.7,9.2c3.9,3.7,9.1,5.5,13.8,8.1c0.9,0.5,1.8,1.1,2.6,1.7c1.8,1.4,3.5,3,5,4.8l0,0c6.1,7.1,9.7,16.8,16.4,23.9
	c5.4,5.7,10,12,13.9,18.8c0.6,1.1,1.2,2.3,1.8,3.4c1,1.9,1.9,3.9,2.8,5.9c0.2,0.5,0.4,1,0.6,1.5c1.3,3,2.4,6.1,3.3,9.2
	c2.3,7.5,3.8,15.7,8.8,21.8c3.5,4.2,8.4,7,12.5,10.6c2.6,2.2,4.7,5.1,6.1,8.3C411.9,915,412.2,917.1,411.9,919.1z"/>
<path class="st7" d="M384.1,859c-1.1,1.4-2.3,2.9-3.5,4.3c-0.2,0.3-0.4,0.5-0.6,0.8c-10.5,12.3-22.6,23.2-35.9,32.5
	c-8.2,5.7-16.9,10.8-25.5,15.9l-16,9.4c-6.7,3.9-13.5,7.9-20.9,10.2c-2.4,0.7-4.9,1.3-7.3,2c-0.4-0.6-0.8-1.3-1.3-1.9
	c-2.9-4.5-5.9-9-8.9-13.3l-16.5-7.7c9.1-5.7,17.2-13,23.9-21.4c10-12.3,17.7-26.4,25.3-40.4c1.3-2.3,2.4-4.7,3.1-7.2
	c1-4.2,0.2-8.6-1.1-12.7c-4.5-14.8-14-27.5-26.8-36.1c-9-6-19.2-9.6-29.4-13.2c-7.1-2.5-14.9-4.8-22.1-3.8c1.5-1.7,3.2-3.3,4.9-4.7
	c2.1-1.8,4.4-2.9,7.1-2.5s5.4,0.8,8,1.3c5.4,1.6,10.6,3.6,15.8,5.6c3.4,1.3,6.8,2.8,10,4.5c3.2,2,6.3,4.1,9.2,6.5
	c8.7,6.6,17.8,12.6,27.3,17.9c11,6.1,22.5,11,34.1,16c1.2,0.6,2.6,1,4,1c1.4,0,2.7-1,3-2.3c0-0.7-0.1-1.5-0.5-2.1
	c-2-4.1-6.5-6.1-10.6-8.1c-17.1-8.3-32.1-20.1-46.9-32c-0.4-0.3-0.7-0.6-0.9-1l2.6-0.6c16.6,11.9,34.1,22.5,52.5,31.6
	c1,0.5,1.9,1,2.9,1.4c0.7,0.4,1.4,0.7,2.1,1l0,0c4.9,2.4,9.9,5,13.6,9c2.4,2.8,4.4,5.8,6,9.1c4.1,7.7,7.6,15.7,10.4,24
	c0.1,0.2,0.1,0.4,0.2,0.5c0.4,1.3,1,2.4,1.8,3.4c0.3,0.3,0.7,0.6,1,0.8C379.9,857.8,382.5,857.6,384.1,859z"/>
<path class="st2" d="M287.5,773.5c16.6,11.9,34.1,22.5,52.4,31.6l2.9,1.5c5.6,2.7,11.4,5.5,15.7,10c2.4,2.8,4.4,5.8,6,9.1
	c4.1,7.7,7.6,15.7,10.4,24c0.6,1.8,1.4,3.8,3.1,4.8s4.4,0.9,5.9,2.3c-1.4,1.7-2.7,3.4-4.2,5c-10.5,12.3-22.6,23.2-35.9,32.5
	c-8.2,5.7-16.9,10.8-25.5,15.9l-16,9.4c-6.7,3.9-13.5,7.9-20.9,10.1c-2.8,0.8-5.7,1.5-8.6,2.3c-2.9-4.5-5.9-9-8.9-13.3l-18.6-8.7
	c10-5.7,18.7-13.7,26-22.7c10-12.3,17.7-26.4,25.3-40.3c1.3-2.3,2.4-4.7,3.1-7.2c1-4.2,0.2-8.6-1.1-12.7
	c-4.5-14.7-13.9-27.4-26.7-36c-9-6-19.2-9.6-29.4-13.2c-7.1-2.5-14.9-4.8-22.1-3.8c1.5-1.7,3.2-3.3,4.9-4.7c2.1-1.8,4.4-2.8,7.1-2.5
	c2.8,0.4,5.4,0.8,8,1.2c5.4,1.7,10.6,3.6,15.8,5.6c3.4,1.3,6.8,2.8,10,4.5c3.2,2,6.3,4.1,9.2,6.5c8.7,6.6,17.8,12.6,27.4,17.9
	c11,6.1,22.5,11,34.1,16c1.2,0.6,2.6,1,4,1c1.4,0,2.7-1,3-2.3c0-0.7-0.1-1.4-0.5-2.1c-2-4.1-6.5-6.2-10.6-8.1
	c-17.1-8.3-32.1-20.2-46.9-32c-0.4-0.3-0.7-0.6-0.9-1L287.5,773.5z"/>
<circle class="st2" cx="427.6" cy="765" r="62.8"/>
<path class="st6" d="M490.1,1014.8c11.8-3.7,23.7-7.5,34-14.2c7.3-4.7,13.5-10.8,20.1-16.5c5-4.2,10.1-8.2,14.6-12.9
	c4.1-4.4,7.9-9,11.4-13.8c8-10.5,16.3-20.8,24.9-30.9c4.6-5.4,9.4-10.9,15.8-13.9c11.4-5.3,24.8-1.7,36.8,1.9
	c18,5.5,35.9,11.3,52.8,19.7c9.6,4.8,18.9,10.1,28.5,14.7c17.7,8.3,36.5,14.1,55.2,19.8c1.4,0.6,2.9,0.7,4.4,0.4
	c1-0.5,1.9-1.2,2.6-2.2c2.4-3,4.4-6.4,5.8-10c0.6-0.9,0.3-2-0.5-2.6c-8-7.8-18.4-12.6-28.1-18.1c-7.7-4.4-15.1-9.4-22.5-14.3
	c-7.1-4.8-14.2-9.5-20.2-15.7c-3-3.1-5.7-6.5-9-9.3c-2.9-2.3-5.9-4.5-9.1-6.4c-14.3-9.1-27.9-19.2-40.7-30.2
	c-9.8-8.4-17.8-19.1-28.2-26.6c-6.4-4.6-13.9-8.8-21.7-8c-9.5,1-16.6,9-23.2,15.9c-22.3,23.2-50.5,39.8-75.5,60.2
	c-20.4,16.6-39.4,36.4-64.2,45.2c1.1,3.7,1.5,7.4,2.6,11c1.4,5.1,3.1,10,5.2,14.8c2.1,4.3,4.4,8.4,6.9,12.4l9.9,16.2
	c2,3.3,4.1,6.7,7,9.3C487.2,1012.2,490.1,1012.7,490.1,1014.8z"/>
<path class="st7" d="M490.1,1014.8c11.8-3.7,23.7-7.5,34-14.2c7.3-4.7,13.5-10.8,20.1-16.5c5-4.2,10.1-8.2,14.6-12.9
	c4.1-4.4,7.9-9,11.4-13.8c8-10.5,16.3-20.8,24.9-30.9c4.6-5.4,9.4-10.9,15.8-13.9c11.4-5.3,24.8-1.7,36.8,1.9
	c18,5.5,35.9,11.3,52.8,19.7c9.6,4.8,18.9,10.1,28.5,14.7c17.7,8.3,36.5,14.1,55.2,19.8c1.4,0.6,2.9,0.7,4.4,0.4
	c1-0.5,1.9-1.2,2.6-2.2c2.4-3,4.4-6.4,5.8-10c0.6-0.9,0.3-2-0.5-2.6c-8-7.8-18.4-12.6-28.1-18.1c-7.7-4.4-15.1-9.4-22.5-14.3
	c-7.1-4.8-14.2-9.5-20.2-15.7c-3-3.1-5.7-6.5-9-9.3c-2.9-2.3-5.9-4.5-9.1-6.4c-14.3-9.1-27.9-19.2-40.7-30.2
	c-9.8-8.4-17.8-19.1-28.2-26.6c-6.4-4.6-13.9-8.8-21.7-8c-9.5,1-16.6,9-23.2,15.9c-22.3,23.2-50.5,39.8-75.5,60.2
	c-20.4,16.6-39.4,36.4-64.2,45.2c1.1,3.7,1.5,7.4,2.6,11c1.4,5.1,3.1,10,5.2,14.8c2.1,4.3,4.4,8.4,6.9,12.4l9.9,16.2
	c2,3.3,4.1,6.7,7,9.3C487.2,1012.2,490.1,1012.7,490.1,1014.8z"/>
<path class="st4" d="M763.8,995.7c2.3,3.2,3,7.2,2,11c3.6,2.6,7.9,3.8,12.3,3.6c4.4-0.2,8.6-1.2,12.7-2.9c3.5-1.3,6.8-3,9.8-5.2
	c5.2-3.9,9-9.4,12-15.1c1.7-3.2,3.1-7.2,1-10.1c-0.8-1-1.9-1.8-3-2.3c-7.7-4.4-15.7-8.2-24-11.4c-2.3-1-4.7-1.6-7.2-1.6
	c-3.1,0.2-5.9,1.9-8.3,3.7c-5.5,4.3-9.9,9.7-12.9,16c-0.9,2-3.8,6.8-2.4,8.8c0.6,1,3,1.3,4,1.9C761.4,993.1,762.7,994.3,763.8,995.7
	z"/>
<path class="st6" d="M809.6,972.1c16.9,3.2,32.5,11.3,49.1,15.7c6.7,1.8,13.7,3,20.1,5.6s12.5,7.1,15.3,13.5
	c1.2,3.1,1.9,6.3,2.3,9.5c0.7,4.6,1.3,9.8-1.4,13.5c-2.9,4-8.3,4.9-13.2,5.5c-17.6,2.1-35.2,4.2-52.8,5.7c-3.6,0.2-7.1,0.6-10.6,1.3
	c-2.9,0.6-5.7,1.5-8.6,2.1c-3.7,0.9-7.5,1.4-11.3,2c-9.7,1.4-19.5,2.8-29.2,1.7c-4.4-0.5-9.4-1.9-11.3-5.9c-0.8-2.1-1.2-4.3-1-6.5
	c0-5.9-0.1-11.9,0-17.8c0.1-6.1,0.4-12.4,3.2-17.8c0.7-1.7,2-3,3.6-3.8c1-0.3,2.1-0.4,3.1-0.3c5.2,0.2,10.6,0.4,15.2,2.7
	c3.7,1.8,6.3-3.6,10.1-2c7.1,3.2,2.3-6.4,9.5-3.4c1.7-5.2,8.8-2.1,7.6-7.4s3.2-3,2.7-8.5c0-1.2-0.3-2.4-0.7-3.5
	C810.6,973,810.8,971.9,809.6,972.1z"/>
<path class="st7" d="M302.8,652.1c-3.9,2.3-8.7,1.8-13.2,1.7c-4-0.1-7.9,0.1-11.8,0.6c-1.4,0.1-2.8,0.5-4.1,1.1
	c-1.7,1.1-3,2.6-3.8,4.4c-1.6,3.1-2.7,6.4-3.2,9.8c-0.6,3.9-0.5,8.1-2.9,11.1c-3.3,4.2-8.4,3.5-13,4.3c-4,0.8-7.9,2.2-11.4,4.4
	c-7,4.2-11.8,11.3-13.2,19.4c-0.1,0.9-0.2,1.8-0.3,2.7c-0.1,2.6,0.2,5.2-0.2,7.7c-0.1,0.6-0.2,1.3-0.4,1.9c0,0.2-0.1,0.4-0.2,0.5
	c-0.1-1.2-0.3-2.3-0.5-3.5c-3-3.1-5.7-6.6-7.9-10.3c-0.6-0.6-1.1-1.4-1.4-2.2c-3.2-7.5-5.4-15.2-5.4-23.4c0-28.4,23-51.4,51.3-51.4
	C277.7,631.1,293.1,638.9,302.8,652.1L302.8,652.1z"/>
<path class="st6" d="M306.1,632.5c-2.6-6-8-10.2-13.6-13.5c-11-6.6-23.7-10.7-36.5-10.9c-6.5,0-12.9,0.7-19.3,2
	c-6.2,1.1-12.2,2.8-18.1,5.1c-9.6,4-18.1,10.3-24.8,18.3c-1.4,0.1-2.8,0.3-4.1,0.7c-5.4,1.4-10.3,4.3-14.8,7.7
	c-3.7,2.7-7.1,6-9.9,9.6c-3.3,4.7-5.5,10-6.7,15.6c-3.8,17.6,0.9,35.7,4.3,53.3s5.4,36.9-3,52.7c-3.2,6-7.7,11.1-11.1,16.9
	c-3.4,5.8-5.7,12.9-3.7,19.4c2.3,7.9,10,12.9,14.1,20c5.1,9.5,3.2,21.3-4.7,28.7c6.4,2.2,13.4-0.2,19.1-3.7
	c4.5-2.6,8.4-6.3,11.3-10.7c7.2-11.6,4-26.7,6.5-40.1c3.3-17.6,16.8-33.3,14.9-51.1c-1.3-12-9.2-22-15.4-32.2
	c-4.2-6.9-7.6-14.1-10.4-21.6c-2-5.4-3.6-11.1-2.6-16.8c0.3-1.7,0.9-3.4,1.6-5c0,0.2,0,0.4,0,0.6c0.1,5.2,1.3,10.3,3.4,15
	c7.4,15.2,27.3,20.8,35.6,35.5c2.4-2.7,5-5.5,6-9c0.9-3.1,0.4-6.4,0.6-9.6c0.4-9,5.8-17.5,13.5-22.1c3.5-2.1,7.4-3.6,11.4-4.4
	c4.6-0.8,9.7-0.2,13-4.3c2.4-3,2.3-7.3,2.9-11.1c0.5-3.4,1.6-6.8,3.2-9.8c0.8-1.8,2.1-3.3,3.8-4.4c1.3-0.6,2.7-1,4.1-1.1
	c3.9-0.5,7.9-0.7,11.8-0.6c4.6,0.1,9.5,0.5,13.4-1.8C307.4,646.5,308.6,638.5,306.1,632.5z"/>
<path class="st6" d="M1049.4,928.5l-0.9,0.3"/>
<path class="st6" d="M874.2,973.1c0-0.3,0.1-0.7,0.2-1"/>
<path class="st7" d="M411.9,919.1c-0.7,4.6-4.9,8.1-7.8,11.7c-8,9.7-16.1,19.4-25.1,28.3c-9.6,9.5-20.1,17.9-30.7,26.3l-13.7,10.9
	c-1.7,1.5-3.7,2.7-5.8,3.5c-2.5,0.6-5.2,0.3-7.5-0.9c0.2-0.4,0.4-0.8,0.6-1.1l16.4-27.5c3.2-5.4,5.3-10.3,9-15.3
	c5.5-7.6,11.1-15.2,17.9-21.6c8.6-8.1,19.6-14,29.9-19.9c1.5-4.4,7.7-5.7,11.9-3.6c1.6,0.8,3,1.9,4.1,3.2
	C411.9,915,412.2,917.1,411.9,919.1z"/>
<path class="st6" d="M339.5,971.5l-16.4,27.5c-0.7,1.1-1.4,2.4-1.1,3.6c0.4,1.1,1.1,2,2,2.6c6.3,5.1,13.2,10.5,15.2,18.3
	c1.4,5.6,0,11.6,1.3,17.2c2.3,10.1,12.5,16.3,22.1,20.2c21.6,8.7,45.6,12.1,68.5,8s44.7-15.8,59.6-33.7c4.6-5.5,8.5-11.6,12.8-17.3
	c12-15.8,27.2-28.7,42.3-41.5c19.5-16.5,30.9-41.1,48-60c3.1-3.5,6.5-7,11-8.1c2.5-0.6,6,0.3,6.1,2.9c0.2,5,4.3,9.1,7,13.3
	c10.4,15.8,21.2,32.2,37.2,42.3c8.8,5.5,18.7,8.9,28.6,12c25.1,7.8,50.7,14,76.3,20.1c1.3-2.6,2.8-5,4.6-7.3c2.7-3.3,6.1-5.7,8.8-9
	c4.9-5.9,6.6-13.7,8.1-21.2c-15.3-9.3-30.9-19-46-28.7c-7.6-4.9-15.2-9.9-21.3-16.5c-4-4.3-7.4-9.3-11.4-13.7
	c-4.1-4.2-8.5-8.2-13.2-11.7l-36-28.8c-10.3-8.3-20.9-17-31-25.6c-5.7-4.8-12-9.9-19.4-10.1c-6.4-0.2-12.2,3.2-17.7,6.5
	c-32.2,19.3-64.9,37.7-98,55.2c-6.7,3.5-13.5,7.1-19.9,11.1c-12.5,7.9-23.5,17.8-32.7,29.4c-1.7,2.1-3.8,4.5-6.5,4.2
	c-0.7-0.1-1.4-0.4-2.1-0.7c-4.1-2.2-6.7-6.5-9-10.5s-5-8.3-9.1-10.4s-10.4-0.9-11.9,3.6c-10.3,6-21.3,11.9-29.9,20
	c-6.8,6.4-12.4,14-17.9,21.6C344.8,961.2,342.7,966.1,339.5,971.5z"/>
<path class="st7" d="M312.7,804c0,0,16.5,7.3,28.3,15.6"/>
<path class="st7" d="M240.8,802.6c-13.1,2.6-19.9,18-19.2,31.3c0.7,11.9,5.6,23.2,13.8,31.8c5.5,5.8,12.3,10.2,17.2,16.4
	c7.3,9.2,9.8,21.3,16.4,31c4.7,7.1,11.4,12.6,18,17.9c15.2,12.2,31,23.7,47.2,34.5c6.6,4.4,13.8,8.9,21.8,8.7
	c7.5-0.2,14.4-4.5,19.3-10.2s8-12.6,11.2-19.4c11.4-24.9,22.9-50.1,28.4-76.9c1.7-8.4,2.9-17.1,6.7-24.8c3-6,7.4-11.1,11.4-16.6
	c9.4-12.9,15.9-27.5,19.3-43.1c2.2-10.1,2.9-21-0.7-30.7s-12.3-18.1-22.6-18.9c-8.2-0.6-16.2,3.6-21.7,9.7s-8.7,13.9-11,21.8
	c-3.2,11.4-4.4,23.2-3.6,35c0.6,9.5,2.6,19.1,0.9,28.5c-1.2,6.6-4,12.8-6.9,18.9c-7.4,15.7-14.9,31.7-26.1,45
	c-3.6,4.3-8.6,8.7-14.2,7.7c-7.7-1.4-9.7-11.2-13.5-18c-4.7-8.4-13.5-13.5-20.4-20.1c-9.9-9.5-15.8-22.2-22.8-34
	c-7-11.8-16.1-23.4-29-27.9c-12.9-4.5-30.1,1.3-33.5,14.6"/>
<path class="st7" d="M250.7,811.8c-13.1,2.6-29.8,4.3-29,17.6c0.7,11.9,5.6,23.2,13.8,31.8c5.5,5.8,12.3,10.2,17.2,16.4
	c7.3,9.2,9.8,21.3,16.4,31c4.7,7.1,11.4,12.6,18,17.9c15.2,12.2,31,23.7,47.2,34.5c6.6,4.4,13.8,8.9,21.8,8.7
	c7.5-0.2,14.4-4.6,19.3-10.2s8-12.6,11.2-19.4c11.4-24.9,22.9-50.1,28.4-76.9c1.7-8.4,2.9-17.1,6.7-24.8c3-6,7.4-11.1,11.4-16.6
	c9.4-12.9,15.9-27.5,19.3-43.1c2.2-10.1,2.9-21-0.7-30.7c-3.6-9.7-12.3-18.1-22.6-18.9c-8.2-0.6-16.2,3.6-21.7,9.7
	c-5.5,6.1-8.7,13.9-11,21.8c-3.2,11.4-4.4,23.2-3.6,35c0.6,9.5,2.6,19.1,0.9,28.5c-1.2,6.6-4,12.8-6.9,18.9
	c-7.4,15.7-14.9,31.7-26.1,45c-3.6,4.3-8.6,8.7-14.2,7.7c-7.7-1.4-9.7-11.2-13.5-18c-4.7-8.4-13.5-13.5-20.4-20.1
	c-9.9-9.5-15.8-22.2-22.8-34c-7-11.8-16.1-23.4-29-27.9c-12.9-4.5,3.3,24.4-0.1,37.7"/>
<path class="st4" d="M240.8,800.3c-13.1,2.6-19.9,18-19.2,31.3c0.7,11.9,5.6,23.2,13.8,31.9c5.5,5.8,12.3,10.2,17.2,16.4
	c7.3,9.2,9.8,21.3,16.4,31c4.7,7.1,11.4,12.6,18,17.9c15.2,12.2,31,23.7,47.2,34.5c6.6,4.4,13.8,8.9,21.8,8.7
	c7.5-0.2,14.4-4.5,19.3-10.2s8-12.6,11.2-19.4c11.4-24.9,22.9-50.1,28.4-76.9c1.7-8.4,2.9-17.1,6.7-24.8c3-6,7.4-11.1,11.4-16.6
	c9.4-12.9,15.9-27.5,19.3-43.1c2.2-10.1,2.9-21-0.7-30.7c-3.6-9.7-12.3-18.1-22.6-18.9c-8.2-0.6-16.2,3.6-21.7,9.7
	s-8.7,13.9-11,21.8c-3.2,11.4-4.4,23.2-3.6,35c0.6,9.5,2.6,19.1,0.9,28.5c-1.2,6.6-4,12.8-6.9,18.9c-7.4,15.7-14.9,31.7-26.1,45
	c-3.6,4.3-8.6,8.7-14.2,7.7c-7.7-1.4-9.7-11.2-13.5-18c-4.7-8.4-13.5-13.5-20.4-20.1c-9.9-9.5-15.8-22.2-22.8-34
	c-7-11.8-16.1-23.4-29-27.9c-12.9-4.5-30.1,1.3-33.5,14.6"/>
<g class="st8">
	<path d="M190.7,720.5c-4.2-6.9-7.6-14.1-10.4-21.6l-0.3-1c-2.1-2.3-3.9-4.8-5.3-7.6c-2.1-4.7-3.3-9.8-3.4-15c0-0.2,0-0.4,0-0.6
		c-0.7,1.6-1.2,3.3-1.6,5c-1,5.6,0.7,11.4,2.6,16.8c2.8,7.5,6.3,14.8,10.4,21.6c6.2,10.4,14.1,20.4,15.4,32.3
		c1.9,17.8-11.6,33.5-14.9,51.1c-2.5,13.4,0.7,28.5-6.5,40.1c-2.9,4.4-6.7,8-11.3,10.7c-2.8,1.8-6,3.2-9.2,4c-0.6,0.7-1.2,1.4-1.9,2
		c6.4,2.2,13.4-0.2,19.1-3.7c4.5-2.6,8.4-6.3,11.3-10.7c7.2-11.6,4-26.7,6.5-40.1c3.3-17.6,16.8-33.3,14.9-51.1
		C204.8,740.7,196.9,730.7,190.7,720.5z"/>
	<path d="M306.1,632.5c-2.6-6-8-10.2-13.6-13.5c-7.1-4.2-14.8-7.3-22.8-9.2c5.2,1.8,10.1,4.1,14.8,6.9c5.6,3.3,11,7.5,13.6,13.5
		c2.6,6,1.3,14-4.3,17.3c-3.9,2.4-8.8,1.9-13.4,1.8c-3.9-0.1-7.9,0.1-11.8,0.6c-1.4,0.1-2.8,0.5-4.1,1.1c-1.7,1.1-3,2.6-3.8,4.5
		c-1.6,3.1-2.7,6.4-3.2,9.8c-0.6,3.8-0.5,8-2.9,11.1c-3.3,4.2-8.4,3.5-13,4.3c-4,0.8-7.9,2.2-11.4,4.4c-7.7,4.6-13.1,13.1-13.5,22.1
		c-0.1,3.2,0.3,6.5-0.6,9.6c-0.6,1.8-1.4,3.5-2.6,5c1.8,1.9,3.3,4,4.6,6.2c2.4-2.7,5-5.5,6-9c0.9-3.1,0.4-6.4,0.6-9.6
		c0.4-9,5.8-17.5,13.5-22.1c3.5-2.1,7.4-3.6,11.4-4.3c4.6-0.8,9.7-0.2,13-4.4c2.4-3,2.3-7.3,2.9-11.1c0.5-3.4,1.6-6.8,3.2-9.8
		c0.8-1.8,2.1-3.3,3.8-4.4c1.3-0.6,2.7-1,4.1-1.1c3.9-0.5,7.9-0.7,11.8-0.6c4.6,0.1,9.5,0.5,13.4-1.8
		C307.4,646.5,308.6,638.5,306.1,632.5z"/>
</g>
<path class="st7" d="M240.6,728c0,0,11.8,10.2,34.2,4C274.8,732,260.9,737.5,240.6,728z"/>
<path class="st6" d="M179.8,983.2c0,0,1.6-1.8-1.4-2.5v-2.9h1.8c0-7.2-5.1-13.5-12.2-15v-3.5h0.5v-4.6h-11.6v4.6h0.3v3.6
	c-7,1.6-12,7.8-12,15h1.6v2.8c0,0-3.8,1.8,0,5c3.8,3.2,3.2,5.5,3.2,5.5s-1.6,6-4.8,6.8v55.6c0,6.8,5.5,12.4,12.4,12.4c0,0,0,0,0,0
	h9.8c6.8,0,12.4-5.5,12.4-12.4V998c0,0-5.6-4.2-4.6-6.8C176.5,988.4,178.1,985.7,179.8,983.2z"/>
<rect x="492.2" y="522.6" class="st2" width="474" height="18.5"/>
<path class="st9" d="M996.2,525.6l-4.5,4.5l14.6,14.6l32.4-32.4l-4.5-4.5l-27.9,27.7L996.2,525.6z M1035.4,531.7
	c0,14.3-11.6,25.8-25.8,25.8c-14.3,0-25.8-11.6-25.8-25.8s11.6-25.8,25.8-25.8c2.4,0,4.7,0.3,7,1l5-5c-3.8-1.6-8-2.5-12.2-2.4
	c-17.9,0-32.4,14.5-32.4,32.4s14.5,32.4,32.4,32.4c17.9,0,32.4-14.5,32.4-32.4l0,0L1035.4,531.7z"/>
<rect x="492.2" y="602.1" class="st2" width="474" height="18.5"/>
<rect x="493.4" y="678.4" class="st2" width="474" height="18.5"/>
<path class="st9" d="M996.2,603.5l-4.5,4.5l14.6,14.6l32.4-32.4l-4.5-4.5l-27.9,27.7L996.2,603.5z M1035.4,609.7
	c0,14.3-11.6,25.8-25.8,25.8c-14.3,0-25.8-11.6-25.8-25.8s11.6-25.8,25.8-25.8c2.4,0,4.7,0.3,7,1l5-5c-3.8-1.6-8-2.5-12.2-2.4
	c-17.9,0-32.4,14.5-32.4,32.4s14.5,32.4,32.4,32.4c17.9,0,32.4-14.5,32.4-32.4l0,0L1035.4,609.7z"/>
</svg>
