<?xml version="1.0" encoding="utf-8"?>
<!-- Generator: Adobe Illustrator 19.0.0, SVG Export Plug-In . SVG Version: 6.00 Build 0)  -->
<svg version="1.1" id="Layer_1" xmlns="http://www.w3.org/2000/svg" xmlns:xlink="http://www.w3.org/1999/xlink" x="0px" y="0px"
	 viewBox="0 0 1200 1500" style="enable-background:new 0 0 1200 1500;" xml:space="preserve">
<style type="text/css">
	.st0{fill:#8FCA73;}
	.st1{font-family:'Ravie';}
	.st2{font-size:325.7214px;}
	.st3{font-size:159.8996px;}
	.st4{font-family:'LucidaCalligraphy-Italic';}
	.st5{font-size:396.7879px;}
	.st6{font-size:171.744px;}
	.st7{fill:#DB3B66;}
	.st8{font-size:86.4642px;}
</style>
<g id="XMLID_2_">
	<text id="XMLID_11_" transform="matrix(1 0 0 1 104.4832 816.6968)" class="st0 st1 st2">F</text>
	<text id="XMLID_10_" transform="matrix(1 0 0 1 812.9446 807.8179)" class="st0 st1 st2">T</text>
	<text id="XMLID_9_" transform="matrix(1 0 0 1 528.2292 537.9854)" class="st0 st1 st3">st</text>
	<text id="XMLID_8_" transform="matrix(1 0 0 1 361.4675 614.4293)" class="st0 st4 st5">1</text>
	<text id="XMLID_7_" transform="matrix(1 0 0 1 115.7165 986.1539)" class="st0 st1 st6">forward</text>
	<path id="XMLID_6_" class="st7" d="M802.3,679.4c10.5,52.5-92,117.2-147.3,128.2c-55.3,11-108.6-22.7-119.1-75.2
		c-10.5-52.5,25.9-104.1,81.2-115.1C672.5,606.3,791.9,626.8,802.3,679.4z"/>
	<path id="XMLID_5_" class="st7" d="M337.6,774c9.4,47.2,57.1,77.5,106.5,67.6s52.6-50.3,43.3-97.5c-9.4-47.2-27.8-83.3-77.3-73.5
		S328.2,726.8,337.6,774z"/>
	<path id="XMLID_4_" class="st7" d="M450.6,839.6l60.2-12c6.5-1.3,10.7-7.6,9.4-14.1l-29.1-146.4c-1.3-6.5-7.6-10.7-14.1-9.4
		l-60.2,12c-6.5,1.3-10.7,7.6-9.4,14.1l29.1,146.4C437.8,836.7,444.2,840.9,450.6,839.6z"/>
	<text id="XMLID_3_" transform="matrix(1 0 0 1 118.697 1084.4624)" class="st7 st1 st8">personal-trainer</text>
</g>
</svg>
